<svg id="Layer_1" data-name="Layer 1" xmlns="http://www.w3.org/2000/svg" viewBox="0 0 500 500"><title>unread</title><path d="M250,0C111.93,0,0,111.93,0,250S111.93,500,250,500,500,388.07,500,250,388.07,0,250,0ZM422.53,422.53A243.17,243.17,0,1,1,474.83,345,243.17,243.17,0,0,1,422.53,422.53Z"/><path d="M444.5,215.5h-160l-1-172-3.52,0H277.5L218,44h0l-2.48,0,1,171.48H62.5V220H62v61h.5v1.5h154L215.5,459h3l3,0v0H283v-.49h.5l1-176h160V281h.5V220h-.5Zm-5.5,61H278.5v3l-1,173.52h-56l.95-170.5h0v-6H68v-55H222.5v-6h0L221.53,50l56-.45,1,169.5v2.48H439Z"/></svg>