<?xml version="1.0" encoding="utf-8"?>
<!-- Generator: Adobe Illustrator 23.1.0, SVG Export Plug-In . SVG Version: 6.00 Build 0)  -->
<svg version="1.1" xmlns="http://www.w3.org/2000/svg" xmlns:xlink="http://www.w3.org/1999/xlink" x="0px" y="0px"
	 viewBox="0 0 260 260" style="enable-background:new 0 0 260 260;" xml:space="preserve">
<style type="text/css">
	.st0{fill:#FFFFFF;stroke:#000000;stroke-miterlimit:10;}
	.st1{fill:none;stroke:#000000;stroke-width:4;stroke-miterlimit:10;}
	.st2{display:none;}
	.st3{display:inline;fill:#FFFFFF;stroke:#4D4D4D;stroke-width:5;stroke-miterlimit:10;}
	.st4{display:inline;fill:#4D4D4D;stroke:#4D4D4D;stroke-width:4;stroke-miterlimit:10;}
	.st5{display:inline;fill:#4D4D4D;}
	.st6{display:inline;fill:none;stroke:#4D4D4D;stroke-width:4;stroke-miterlimit:10;}
</style>
<g id="Layer_1">
	<path class="st0" d="M154.6,137.16c10.66-0.42,18.26-9.71,17.09-18.75c-0.99-7.63-8.1-14.04-16.93-14.29"/>
	<polygon class="st0" points="154.89,176.48 154.89,56.05 85.1,89.42 85.1,141.65 	"/>
	<path class="st0" d="M85.1,89.42v52.23c-2.44,1.49-7.46,4.23-13.99,5.15c-3.75,0.53-8,0.45-12.54-0.8
		c-4.86-1.34-18.43-5.09-23.07-20.31c-2.89-9.46-1.59-20.95,3.46-29.02c5.44-8.68,13.3-10.3,19.61-11.61
		C70.08,82.69,79.71,86.54,85.1,89.42z"/>
	<rect x="59.73" y="147.41" class="st0" width="10.38" height="29.99"/>
	<line class="st1" x1="182.8" y1="105.05" x2="214.8" y2="95.05"/>
	<line class="st1" x1="182.8" y1="122.05" x2="214.8" y2="122.05"/>
	<line class="st1" x1="182.8" y1="139.05" x2="214.8" y2="147.05"/>
</g>
<g id="replied" class="st2">
	<circle class="st3" cx="219.3" cy="40.55" r="37.75"/>
	<path class="st4" d="M218.51,12.67c4.22,0.18,7.4,3.92,7.34,7.99c-0.05,4.09-3.36,7.61-7.34,7.77c-4.57,0.19-8.41-4.11-7.99-8.64
		C210.88,15.91,214.31,12.48,218.51,12.67z"/>
	<path class="st4" d="M218.84,35.13c3.22,0.04,5.62,2.24,7.97,4.41c5.63,5.17,11.51,15.45,7.97,22.03
		c-4.78,8.87-25.79,9.26-31.05,0.21C198.45,52.68,209.63,35.02,218.84,35.13z"/>
</g>
<g id="Layer_3" class="st2">
	<circle class="st3" cx="219.17" cy="219.07" r="37.75"/>
	<path class="st5" d="M206.19,208.51c-2.3,2-2.92,5.7-4.08,13.03c-1.29,8.17-1.93,12.25-0.3,14.39c0.61,0.8,2.4,2.76,17.48,2.69
		c14.83-0.06,16.54-1.97,17.13-2.79c1.35-1.87,0.56-6.07-1.07-14.39c-2.18-11.13-3.54-12.58-4.49-13.35
		c-2.66-2.17-5.89-2.12-12.34-2.02c-2.52,0.04-4.52-0.25-6.96,0.31C210.14,206.7,207.83,207.09,206.19,208.51z"/>
	<path class="st6" d="M209.48,208.27c-0.37-6.77,5.21-11.55,9.94-10.97c3.97,0.49,7.69,4.82,7.54,10.28"/>
</g>
</svg>
