<?xml version="1.0" encoding="utf-8"?>
<!-- Generator: Adobe Illustrator 23.1.0, SVG Export Plug-In . SVG Version: 6.00 Build 0)  -->
<svg version="1.1" id="Layer_1" xmlns="http://www.w3.org/2000/svg" xmlns:xlink="http://www.w3.org/1999/xlink" x="0px" y="0px"
	 viewBox="0 0 260 260" style="enable-background:new 0 0 260 260;" xml:space="preserve">
<style type="text/css">
	.st0{fill:#377DFF;}
	.st1{fill:#FFFFFF;stroke:#000000;stroke-miterlimit:10;}
	.st2{fill:none;stroke:#000000;stroke-width:4;stroke-miterlimit:10;}
</style>
<g>
	
		<ellipse transform="matrix(0.7071 -0.7071 0.7071 0.7071 -53.44 130.0832)" class="st0" cx="130.3" cy="129.55" rx="126" ry="126"/>
	<path d="M130.3,4.05c33.52,0,65.04,13.05,88.74,36.76c23.7,23.7,36.76,55.22,36.76,88.74s-13.05,65.04-36.76,88.74
		s-55.22,36.76-88.74,36.76S65.27,242,41.56,218.29c-23.7-23.7-36.76-55.22-36.76-88.74s13.05-65.04,36.76-88.74
		C65.27,17.1,96.78,4.05,130.3,4.05 M130.3,3.05C60.44,3.05,3.8,59.69,3.8,129.55s56.64,126.5,126.5,126.5s126.5-56.64,126.5-126.5
		S200.17,3.05,130.3,3.05L130.3,3.05z"/>
</g>
<path class="st1" d="M154.6,137.16c10.66-0.42,18.26-9.71,17.09-18.75c-0.99-7.63-8.1-14.04-16.93-14.29"/>
<polygon class="st1" points="154.89,176.48 154.89,56.05 85.1,89.42 85.1,141.65 "/>
<path class="st1" d="M85.1,89.42v52.23c-2.44,1.49-7.46,4.23-13.99,5.15c-3.75,0.53-8,0.45-12.54-0.8
	c-4.86-1.34-18.43-5.09-23.07-20.31c-2.89-9.46-1.59-20.95,3.46-29.02c5.44-8.68,13.3-10.3,19.61-11.61
	C70.08,82.69,79.71,86.54,85.1,89.42z"/>
<rect x="59.73" y="147.41" class="st1" width="10.38" height="29.99"/>
<line class="st2" x1="182.8" y1="105.05" x2="214.8" y2="95.05"/>
<line class="st2" x1="182.8" y1="122.05" x2="214.8" y2="122.05"/>
<line class="st2" x1="182.8" y1="139.05" x2="214.8" y2="147.05"/>
<g>
</g>
<g>
</g>
<g>
</g>
<g>
</g>
<g>
</g>
<g>
</g>
<g>
</g>
<g>
</g>
<g>
</g>
<g>
</g>
<g>
</g>
<g>
</g>
<g>
</g>
<g>
</g>
<g>
</g>
</svg>
