<?xml version="1.0" encoding="utf-8"?>
<!-- Generator: Adobe Illustrator 23.1.0, SVG Export Plug-In . SVG Version: 6.00 Build 0)  -->
<svg version="1.1" xmlns="http://www.w3.org/2000/svg" xmlns:xlink="http://www.w3.org/1999/xlink" x="0px" y="0px"
	 viewBox="0 0 90 90" style="enable-background:new 0 0 90 90;" xml:space="preserve">
<style type="text/css">
	.st0{display:none;}
	.st1{display:inline;fill:#FFFFFF;stroke:#4D4D4D;stroke-width:5;stroke-miterlimit:10;}
	.st2{display:inline;fill:#4D4D4D;stroke:#4D4D4D;stroke-width:4;stroke-miterlimit:10;}
	.st3{fill:#FFFFFF;stroke:#4D4D4D;stroke-width:5;stroke-miterlimit:10;}
	.st4{fill:#4D4D4D;}
	.st5{fill:none;stroke:#4D4D4D;stroke-width:4;stroke-miterlimit:10;}
</style>
<g id="Layer_1" class="st0">
	<circle class="st1" cx="45.39" cy="44.74" r="37.75"/>
	<path class="st2" d="M44.6,16.85c4.22,0.18,7.4,3.92,7.34,7.99c-0.05,4.09-3.36,7.61-7.34,7.77c-4.57,0.19-8.41-4.11-7.99-8.64
		C36.97,20.1,40.4,16.67,44.6,16.85z"/>
	<path class="st2" d="M44.93,39.32c3.22,0.04,5.62,2.24,7.97,4.41c5.63,5.17,11.51,15.45,7.97,22.03
		c-4.78,8.87-25.79,9.26-31.05,0.21C24.54,56.87,35.71,39.2,44.93,39.32z"/>
</g>
<g id="Layer_2">
	<circle class="st3" cx="45.39" cy="44.74" r="37.75"/>
	<path class="st4" d="M32.42,34.17c-2.3,2-2.92,5.7-4.08,13.03c-1.29,8.17-1.93,12.25-0.3,14.39c0.61,0.8,2.4,2.76,17.48,2.69
		c14.83-0.06,16.54-1.97,17.13-2.79c1.35-1.87,0.56-6.07-1.07-14.39c-2.18-11.13-3.54-12.58-4.49-13.35
		c-2.66-2.17-5.89-2.12-12.34-2.02c-2.52,0.04-4.52-0.25-6.96,0.31C36.37,32.37,34.05,32.75,32.42,34.17z"/>
	<path class="st5" d="M35.7,33.94c-0.37-6.77,5.21-11.55,9.94-10.97c3.97,0.49,7.69,4.82,7.54,10.28"/>
	<g>
	</g>
	<g>
	</g>
	<g>
	</g>
	<g>
	</g>
	<g>
	</g>
	<g>
	</g>
	<g>
	</g>
	<g>
	</g>
	<g>
	</g>
	<g>
	</g>
	<g>
	</g>
	<g>
	</g>
	<g>
	</g>
	<g>
	</g>
	<g>
	</g>
</g>
</svg>
