<?xml version="1.0" encoding="utf-8"?>
<!-- Generator: Adobe Illustrator 23.1.0, SVG Export Plug-In . SVG Version: 6.00 Build 0)  -->
<svg version="1.1" xmlns="http://www.w3.org/2000/svg" xmlns:xlink="http://www.w3.org/1999/xlink" x="0px" y="0px"
	 viewBox="0 0 260 260" style="enable-background:new 0 0 260 260;" xml:space="preserve">
<style type="text/css">
	.st0{display:none;}
	.st1{display:inline;fill:#FFFFFF;stroke:#000000;stroke-miterlimit:10;}
	.st2{display:inline;fill:none;stroke:#000000;stroke-width:4;stroke-miterlimit:10;}
	.st3{display:inline;fill:#FF5F95;}
	.st4{fill:#FFFFFF;stroke:#000000;stroke-miterlimit:10;}
	.st5{display:inline;fill:#FFFFFF;stroke:#4D4D4D;stroke-width:5;stroke-miterlimit:10;}
	.st6{display:inline;fill:#4D4D4D;stroke:#4D4D4D;stroke-width:4;stroke-miterlimit:10;}
	.st7{display:inline;fill:#4D4D4D;}
	.st8{display:inline;fill:none;stroke:#4D4D4D;stroke-width:4;stroke-miterlimit:10;}
</style>
<g id="Layer_1" class="st0">
	<path class="st1" d="M154.6,137.16c10.66-0.42,18.26-9.71,17.09-18.75c-0.99-7.63-8.1-14.04-16.93-14.29"/>
	<polygon class="st1" points="154.89,176.48 154.89,56.05 85.1,89.42 85.1,141.65 	"/>
	<path class="st1" d="M85.1,89.42v52.23c-2.44,1.49-7.46,4.23-13.99,5.15c-3.75,0.53-8,0.45-12.54-0.8
		c-4.86-1.34-18.43-5.09-23.07-20.31c-2.89-9.46-1.59-20.95,3.46-29.02c5.44-8.68,13.3-10.3,19.61-11.61
		C70.08,82.69,79.71,86.54,85.1,89.42z"/>
	<rect x="59.73" y="147.41" class="st1" width="10.38" height="29.99"/>
	<line class="st2" x1="182.8" y1="105.05" x2="214.8" y2="95.05"/>
	<line class="st2" x1="182.8" y1="122.05" x2="214.8" y2="122.05"/>
	<line class="st2" x1="182.8" y1="139.05" x2="214.8" y2="147.05"/>
</g>
<g id="Layer_4" class="st0">
	<polygon class="st1" points="64.92,167.31 64.92,92.11 194.42,92.11 194.42,167.31 109.81,167.31 93.62,186.61 92.88,167.31 	"/>
</g>
<g id="Layer_6" class="st0">
	<rect x="-18" y="-21" class="st3" width="301" height="320"/>
</g>
<g id="Layer_5">
	<path class="st4" d="M172.92,118.02c-0.99-2.03-5.53-11.31-7.88-10.64c-3.13,0.89-1.51,19.08-1.45,19.64
		c0.01,0.1,0.02,0.17,0.03,0.32c0.14,1.71,0.21,2.57,0,2.85c-0.54,0.72-2.42,0.13-2.85,0c-2.5-0.78-4.02-2.54-4.28-2.85
		c-5.11-6.11-1.9-16.99-1.43-18.54c0.01-0.02,0,0.01,0,0c2.51-8.17-1.13-16.18-2.85-19.96c-7.74-17.02-24.24-25.67-24.24-25.67
		c-13.36-7-26.73-6.99-27.09-5.7c-0.29,1.03,9.38,2.93,15.69,11.41c6.27,8.44,5.54,18.52,5.26,22.44
		c-0.63,8.73-4.27,18.84-8.11,18.92c-1.55,0.03-4.77-1.51-6.92-4.03c-0.09-0.11-0.16-0.19-0.21-0.25c-4.59-5.53-2.56-9.7-5.7-14.26
		c-5-7.26-17.69-7.63-18.54-5.7c-0.64,1.46,5.89,3.47,9.98,11.41c2.6,5.04,2.8,9.73,2.85,11.41c0.05,1.75,0.02,5.98-4.35,16.51
		c-4.29,10.35-5.91,10.27-8,17c-0.99,3.19-2.95,9.53-2,17c1.37,10.73,7.98,17.79,11,21c2.13,2.27,14.92,15.44,34.72,15.48
		c0,0,25.09,0.05,42.41-24.39c0.9-1.26,1.72-2.59,1.79-2.7c2.74-4.4,8.52-13.96,8.56-27.09
		C179.33,131.12,175.68,123.67,172.92,118.02z M150.2,175.38c-0.03,0.05-0.44,0.71-0.89,1.34c-8.58,12.1-21,12.07-21,12.07
		c-9.8-0.02-16.13-6.54-17.19-7.66c-1.49-1.59-4.77-5.08-5.45-10.4c-0.47-3.7,0.5-6.84,0.99-8.42c1.03-3.33,1.84-3.29,3.96-8.42
		c2.16-5.21,2.18-7.3,2.15-8.17c-0.03-0.83-0.12-3.15-1.41-5.65c-2.03-3.93-5.26-4.92-4.94-5.65c0.42-0.95,6.7-0.77,9.18,2.82
		c1.55,2.26,0.55,4.32,2.82,7.06c0.02,0.03,0.06,0.07,0.1,0.12c1.06,1.25,2.66,2.01,3.43,1.99c1.9-0.04,3.71-5.04,4.02-9.37
		c0.14-1.94,0.5-6.93-2.6-11.11c-3.12-4.2-7.91-5.14-7.76-5.65c0.18-0.64,6.8-0.64,13.41,2.82c0,0,8.17,4.28,12,12.71
		c0.85,1.87,2.66,5.84,1.41,9.88c0,0.01,0-0.01,0,0c-0.24,0.77-1.82,6.15,0.71,9.18c0.13,0.15,0.88,1.03,2.12,1.41
		c0.21,0.07,1.14,0.35,1.41,0c0.1-0.14,0.07-0.56,0-1.41c-0.01-0.07-0.01-0.11-0.01-0.16c-0.03-0.28-0.83-9.28,0.72-9.72
		c1.16-0.33,3.41,4.26,3.9,5.27c1.37,2.8,3.17,6.48,3.16,11.68C154.42,168.48,151.56,173.21,150.2,175.38z"/>
</g>
<g id="replied" class="st0">
	<circle class="st5" cx="219.3" cy="40.55" r="37.75"/>
	<path class="st6" d="M218.51,12.67c4.22,0.18,7.4,3.92,7.34,7.99c-0.05,4.09-3.36,7.61-7.34,7.77c-4.57,0.19-8.41-4.11-7.99-8.64
		C210.88,15.91,214.31,12.48,218.51,12.67z"/>
	<path class="st6" d="M218.84,35.13c3.22,0.04,5.62,2.24,7.97,4.41c5.63,5.17,11.51,15.45,7.97,22.03
		c-4.78,8.87-25.79,9.26-31.05,0.21C198.45,52.68,209.63,35.02,218.84,35.13z"/>
</g>
<g id="Layer_3" class="st0">
	<circle class="st5" cx="219.17" cy="219.07" r="37.75"/>
	<path class="st7" d="M206.19,208.51c-2.3,2-2.92,5.7-4.08,13.03c-1.29,8.17-1.93,12.25-0.3,14.39c0.61,0.8,2.4,2.76,17.48,2.69
		c14.83-0.06,16.54-1.97,17.13-2.79c1.35-1.87,0.56-6.07-1.07-14.39c-2.18-11.13-3.54-12.58-4.49-13.35
		c-2.66-2.17-5.89-2.12-12.34-2.02c-2.52,0.04-4.52-0.25-6.96,0.31C210.14,206.7,207.83,207.09,206.19,208.51z"/>
	<path class="st8" d="M209.48,208.27c-0.37-6.77,5.21-11.55,9.94-10.97c3.97,0.49,7.69,4.82,7.54,10.28"/>
</g>
</svg>
